<?xml version="1.0" encoding="UTF-8"?>
<!-- Generator: visioncortex VTracer 0.6.3 -->
<svg version="1.1" xmlns="http://www.w3.org/2000/svg" width="1280" height="1280">
<path d="M0 0 C2.32 1.67 2.32 1.67 4.44 3.44 C5.1 3.98 5.77 4.52 6.46 5.08 C13.62 11.53 15.98 19.04 16.47 28.51 C16.39 35.63 14.83 40.75 10.44 46.44 C9.74 47.07 9.05 47.7 8.33 48.35 C5.36 53.19 5.95 57.96 6.05 63.52 C6.06 65.27 6.06 65.27 6.06 67.06 C6.09 70.79 6.14 74.52 6.19 78.25 C6.21 80.78 6.23 83.31 6.24 85.84 C6.29 92.04 6.35 98.24 6.44 104.44 C7.56 103.48 8.68 102.53 9.79 101.57 C10.73 100.78 10.73 100.78 11.68 99.96 C13.81 98.12 15.83 96.19 17.88 94.25 C45.16 69.69 82.92 54.09 119.67 54.16 C120.95 54.16 122.23 54.15 123.55 54.15 C127.06 54.13 130.58 54.13 134.09 54.13 C137.9 54.13 141.71 54.12 145.51 54.11 C153.82 54.08 162.13 54.08 170.44 54.07 C175.64 54.07 180.84 54.06 186.04 54.05 C200.47 54.03 214.91 54.02 229.34 54.01 C230.72 54.01 230.72 54.01 232.13 54.01 C234 54.01 235.87 54.01 237.74 54.01 C238.67 54.01 239.6 54.01 240.55 54.01 C241.48 54.01 242.41 54.01 243.37 54.01 C258.39 54.01 273.41 53.98 288.43 53.94 C303.89 53.91 319.36 53.89 334.83 53.89 C343.49 53.89 352.16 53.88 360.82 53.85 C368.21 53.82 375.59 53.82 382.98 53.83 C386.73 53.84 390.49 53.84 394.25 53.81 C439.52 53.55 479.23 66.79 512.44 98.44 C514.56 100.58 516.67 102.72 518.75 104.91 C520.47 106.67 520.47 106.67 523.44 107.44 C523.47 100.2 523.46 92.95 523.41 85.71 C523.39 82.35 523.37 78.98 523.39 75.62 C523.41 71.74 523.38 67.86 523.34 63.98 C523.35 62.79 523.37 61.6 523.38 60.37 C523.23 51.51 520.59 46.5 515.44 39.44 C512.1 33.58 512.72 26.95 513.44 20.44 C515.98 12.3 520.35 6.16 527.44 1.44 C528.08 1.01 528.72 0.57 529.39 0.13 C536.46 -3.77 544.64 -3.59 552.44 -2.56 C556.33 -1.13 559.27 0.78 562.44 3.44 C563.1 3.99 563.77 4.54 564.46 5.11 C571.42 11.49 574.3 18.76 574.75 28.06 C574.67 34.3 573.25 41.26 569.01 46.05 C563.89 51.85 563.58 56.64 563.66 64.18 C563.65 65.33 563.64 66.48 563.63 67.67 C563.6 71.46 563.62 75.24 563.63 79.03 C563.62 81.67 563.61 84.3 563.59 86.93 C563.56 93.15 563.55 99.36 563.56 105.57 C563.57 112.65 563.54 119.72 563.51 126.8 C563.45 141.34 563.43 155.89 563.44 170.44 C561.92 170.72 561.92 170.72 560.37 171.02 C556.54 171.74 552.71 172.47 548.88 173.21 C547.23 173.52 545.59 173.83 543.95 174.15 C521.54 178.37 499.98 184.98 478.44 192.44 C477.49 189.6 477.3 187.8 477.28 184.85 C477.26 183.46 477.26 183.46 477.25 182.04 C477.24 181.03 477.23 180.03 477.23 179 C477.2 176.86 477.17 174.73 477.14 172.6 C477.1 169.24 477.06 165.89 477.04 162.53 C477.01 159.29 476.96 156.05 476.91 152.81 C476.91 151.33 476.91 151.33 476.9 149.81 C476.79 143.42 476.13 137.31 473.44 131.44 C468.33 127.08 464.23 126.31 457.68 126.29 C456.99 126.29 456.29 126.28 455.58 126.28 C453.26 126.27 450.94 126.26 448.62 126.26 C446.96 126.25 445.29 126.25 443.63 126.24 C438.17 126.22 432.7 126.21 427.24 126.2 C425.36 126.2 423.48 126.19 421.59 126.19 C412.75 126.17 403.91 126.15 395.07 126.15 C384.87 126.14 374.67 126.11 364.47 126.07 C356.58 126.04 348.69 126.02 340.8 126.02 C336.09 126.02 331.38 126.01 326.67 125.98 C322.24 125.96 317.81 125.96 313.38 125.97 C311.75 125.97 310.13 125.96 308.5 125.95 C296.87 125.79 296.87 125.79 286.44 130.44 C284.56 132.28 284.56 132.28 283.5 134.38 C283.12 135.02 282.74 135.67 282.35 136.34 C280.32 141 280.29 145.68 280.23 150.71 C280.22 151.42 280.21 152.13 280.2 152.87 C280.17 155.21 280.15 157.55 280.12 159.89 C280.1 161.52 280.08 163.15 280.06 164.78 C280 169.06 279.95 173.34 279.91 177.62 C279.85 181.99 279.8 186.36 279.74 190.73 C279.64 199.3 279.54 207.87 279.44 216.44 C271.52 216.44 263.6 216.44 255.44 216.44 C253.29 212.15 253.19 210.12 253.18 205.41 C253.18 204.36 253.18 204.36 253.17 203.29 C253.16 201.77 253.16 200.26 253.16 198.74 C253.16 196.33 253.15 193.93 253.13 191.52 C253.09 184.69 253.06 177.85 253.06 171.01 C253.05 166.82 253.03 162.64 252.99 158.45 C252.98 156.86 252.98 155.27 252.98 153.68 C253.45 141.75 253.45 141.75 248.44 131.44 C240.47 125.53 231.79 125.72 222.31 125.79 C220.7 125.78 219.09 125.77 217.48 125.76 C213.13 125.74 208.78 125.75 204.43 125.77 C199.87 125.78 195.3 125.77 190.74 125.76 C183.07 125.75 175.4 125.76 167.74 125.79 C158.89 125.81 150.05 125.8 141.2 125.78 C133.59 125.75 125.98 125.75 118.36 125.76 C113.82 125.77 109.29 125.77 104.75 125.76 C100.48 125.74 96.21 125.75 91.94 125.78 C90.38 125.79 88.82 125.79 87.26 125.77 C78.61 125.72 70.53 125.84 63.44 131.44 C58.77 137.7 57.33 143.32 57.23 151.04 C57.22 151.7 57.21 152.35 57.2 153.02 C57.17 155.18 57.15 157.33 57.12 159.48 C57.1 160.98 57.08 162.48 57.06 163.97 C57 167.91 56.95 171.84 56.91 175.77 C56.85 179.79 56.8 183.8 56.74 187.82 C56.64 195.69 56.54 203.56 56.44 211.44 C57.73 211.68 59.03 211.93 60.36 212.18 C70.13 214.07 79.71 216.09 89.19 219.12 C90.27 219.47 91.36 219.81 92.48 220.16 C109.32 225.54 125.69 232.04 141.97 238.9 C210.99 267.95 284.3 278.85 358.8 275.66 C363.02 275.48 367.21 275.39 371.44 275.44 C360.14 287.96 338.86 293.32 323.06 297.19 C321.93 297.47 321.93 297.47 320.78 297.75 C303.5 301.72 286.31 302.96 268.62 302.81 C267.62 302.81 266.61 302.8 265.57 302.8 C250.67 302.72 236.11 302.22 221.44 299.44 C219.78 299.14 219.78 299.14 218.09 298.84 C185.28 292.85 154.3 281.79 123.12 270.26 C41.36 238.17 41.36 238.17 -44.88 226.06 C-45.65 226.06 -46.43 226.06 -47.23 226.06 C-72.39 226.14 -96.24 231.35 -120.56 237.44 C-117.23 232.39 -113.4 230.48 -108.06 228.06 C-107.23 227.68 -106.39 227.29 -105.53 226.89 C-96.42 222.78 -87.09 219.44 -77.56 216.44 C-76.81 216.2 -76.06 215.96 -75.29 215.72 C-62.91 211.89 -50.33 209.57 -37.56 207.44 C-34.94 191.25 -35.16 174.93 -35.09 158.57 C-35.08 157.04 -35.07 155.52 -35.06 153.99 C-35.02 146.81 -34.99 139.63 -34.98 132.45 C-34.96 124.22 -34.91 115.99 -34.83 107.76 C-34.76 101.35 -34.74 94.95 -34.73 88.54 C-34.72 84.73 -34.71 80.92 -34.66 77.11 C-34.61 73.54 -34.6 69.96 -34.62 66.38 C-34.62 64.46 -34.58 62.54 -34.54 60.63 C-34.64 52.39 -36.61 47.71 -41.75 41.26 C-43.9 37.91 -44.24 35.37 -44.56 31.44 C-44.72 30.12 -44.72 30.12 -44.87 28.77 C-45.32 20.02 -42.4 12.91 -36.7 6.27 C-34.75 4.44 -32.79 2.92 -30.56 1.44 C-29.92 1.01 -29.28 0.57 -28.61 0.13 C-20.34 -4.43 -8.21 -4.68 0 0 Z M523.44 107.44 C524.44 110.44 524.44 110.44 524.44 110.44 Z M477.44 139.44 C478.44 141.44 478.44 141.44 478.44 141.44 Z M-35.56 197.44 C-34.56 199.44 -34.56 199.44 -34.56 199.44 Z M-36.56 207.44 C-35.56 209.44 -35.56 209.44 -35.56 209.44 Z M304.44 277.44 C304.44 277.77 304.44 278.1 304.44 278.44 C306.42 278.44 308.4 278.44 310.44 278.44 C310.44 278.11 310.44 277.78 310.44 277.44 C308.46 277.44 306.48 277.44 304.44 277.44 Z M337.44 277.44 C337.44 277.77 337.44 278.1 337.44 278.44 C339.75 278.44 342.06 278.44 344.44 278.44 C344.44 278.11 344.44 277.78 344.44 277.44 C342.13 277.44 339.82 277.44 337.44 277.44 Z " fill="#EDEDF8" transform="translate(350.5625,374.5625)"/>
<path d="M0 0 C0.46 -1.45 0.46 -1.45 0.94 -2.94 C2 -6 2 -6 3 -7 C5.06 -7.1 7.12 -7.13 9.19 -7.13 C10.44 -7.13 11.7 -7.14 12.99 -7.14 C13.65 -7.13 14.31 -7.13 14.98 -7.13 C16.99 -7.13 19 -7.13 21.01 -7.14 C22.89 -7.13 22.89 -7.13 24.81 -7.13 C25.97 -7.13 27.14 -7.13 28.33 -7.13 C31 -7 31 -7 32 -6 C32.1 -4.64 32.14 -3.28 32.14 -1.91 C32.15 -1.03 32.15 -0.15 32.16 0.76 C32.16 2.22 32.16 2.22 32.16 3.71 C32.17 5.25 32.17 5.25 32.18 6.81 C32.19 10.21 32.2 13.61 32.2 17.01 C32.21 19.38 32.21 21.74 32.22 24.1 C32.23 29.08 32.24 34.05 32.24 39.02 C32.25 45.36 32.27 51.71 32.3 58.05 C32.32 62.94 32.32 67.83 32.32 72.73 C32.33 75.06 32.33 77.4 32.35 79.73 C32.45 98.97 32.26 117.09 18.29 131.9 C6.63 142.6 -7.59 146.36 -23.09 146.15 C-39.28 145.32 -54.03 139.58 -65.38 127.75 C-70.15 121.71 -73.73 113.76 -73 106 C-71 104 -71 104 -68.29 103.77 C-67.17 103.78 -66.05 103.79 -64.9 103.8 C-63.69 103.81 -62.48 103.82 -61.23 103.82 C-59.96 103.84 -58.68 103.86 -57.38 103.88 C-56.1 103.88 -54.82 103.89 -53.5 103.9 C-50.33 103.93 -47.17 103.96 -44 104 C-44.48 103.4 -44.96 102.79 -45.46 102.17 C-46.09 101.37 -46.72 100.57 -47.38 99.75 C-48 98.96 -48.63 98.17 -49.27 97.36 C-51 95 -51 95 -52.09 92.81 C-53.38 90.24 -55.2 89.35 -57.62 87.88 C-60.1 86.37 -60.1 86.37 -62 85 C-62 84.34 -62 83.68 -62 83 C-62.99 82.67 -63.98 82.34 -65 82 C-75.23 68.75 -77.18 53.16 -76 37 C-74.16 23.66 -68.12 11 -58 2 C-40.28 -10.58 -18.09 -13.33 0 0 Z M1 1 C2 3 2 3 2 3 Z M-39.12 37.31 C-40.05 38.64 -40.05 38.64 -41 40 C-41.33 39.34 -41.66 38.68 -42 38 C-42.66 38 -43.32 38 -44 38 C-45.96 43.87 -46.01 50.6 -43.5 56.31 C-40.29 61.84 -35.4 65.04 -29.56 67.38 C-20.61 68.95 -13.07 68.04 -5.19 63.31 C-0.29 58.14 1.24 53.64 1.25 46.5 C1.19 44.67 1.11 42.83 1 41 C0.34 41.33 -0.32 41.66 -1 42 C-1.44 41.47 -1.87 40.94 -2.32 40.39 C-6.95 34.9 -11.41 29.8 -18.91 28.73 C-26.85 28.35 -33.95 31.15 -39.12 37.31 Z M-41 33 C-40 35 -40 35 -40 35 Z M-42 36 C-41 38 -41 38 -41 38 Z M-34 98 C-34 98.33 -34 98.66 -34 99 C-32.35 99 -30.7 99 -29 99 C-29 98.67 -29 98.34 -29 98 C-30.65 98 -32.3 98 -34 98 Z M-21 98 C-17 99 -17 99 -17 99 Z M-39 105 C-38 108 -38 108 -38 108 Z M-36 111 C-33.31 114.71 -29.29 115.32 -25 116 C-22.63 116.14 -20.37 116.1 -18 116 C-18.6 113.65 -19.27 111.31 -20 109 C-25.26 106.37 -31.48 107.5 -36 111 Z " fill="#ECECF7" transform="translate(929,760)"/>
<path d="M0 0 C1.37 1.29 2.72 2.61 4 4 C3.46 3.94 2.93 3.88 2.37 3.82 C-76.07 -4.61 -155.52 10.7 -227.75 41.44 C-267.69 58.42 -310.96 71.99 -354.73 72.2 C-355.72 72.21 -356.7 72.22 -357.72 72.22 C-398.9 72.45 -398.9 72.45 -416 69 C-417.05 68.79 -418.1 68.58 -419.19 68.37 C-442.95 63.51 -466.02 56.43 -487 44 C-487 43.67 -487 43.34 -487 43 C-480.53 42.72 -475.01 43.74 -468.75 45.31 C-461.3 47.09 -453.89 48.63 -446.31 49.75 C-445.54 49.87 -444.76 49.98 -443.96 50.1 C-371.6 60.32 -301.02 30.25 -234.57 5.36 C-162.9 -21.44 -69.54 -47.02 0 0 Z M-111 -24 C-111 -23.67 -111 -23.34 -111 -23 C-107.04 -23 -103.08 -23 -99 -23 C-99 -23.33 -99 -23.66 -99 -24 C-102.96 -24 -106.92 -24 -111 -24 Z M-97 -24 C-97 -23.67 -97 -23.34 -97 -23 C-93.04 -23 -89.08 -23 -85 -23 C-85 -23.33 -85 -23.66 -85 -24 C-88.96 -24 -92.92 -24 -97 -24 Z M-430 53 C-426 54 -426 54 -426 54 Z " fill="#EDEDF8" transform="translate(1045,575)"/>
<path d="M0 0 C1.72 1.61 3.39 3.27 5 5 C6.09 5.91 7.19 6.81 8.31 7.69 C9.2 8.45 10.09 9.21 11 10 C11 10.66 11 11.32 11 12 C11.66 12 12.32 12 13 12 C14.72 14.32 16.28 16.62 17.81 19.06 C18.49 20.14 18.49 20.14 19.17 21.24 C28.91 37.38 31.84 57.05 27.87 75.51 C24.4 89.41 18 99.1 8 109 C7.27 109.75 6.54 110.51 5.78 111.29 C-7.65 124.29 -25.85 128.2 -44 128 C-60.1 127.12 -74.29 121.83 -87 112 C-87 111.34 -87 110.68 -87 110 C-87.6 109.73 -88.2 109.46 -88.81 109.19 C-91 108 -92.41 106.9 -94 105 C-94 104.34 -94 103.68 -94 103 C-94.59 102.78 -95.18 102.55 -95.79 102.32 C-104.73 96.98 -108.09 81.15 -110.62 71.69 C-113.46 51.73 -109.18 33.99 -98.2 17.26 C-96.56 15.07 -94.84 13.03 -93 11 C-92.42 10.33 -91.84 9.66 -91.24 8.96 C-67.76 -16.53 -28.08 -18.42 0 0 Z M-71 40 C-71.66 39.67 -72.32 39.34 -73 39 C-78.37 51.64 -79.41 61.83 -75 75 C-70.95 84.04 -63.13 90.43 -54 94 C-44.74 96.65 -31.75 96.6 -23.07 92.34 C-19.33 89.93 -16.12 87.17 -13 84 C-12.26 83.26 -11.51 82.51 -10.75 81.75 C-3.92 71.01 -3.6 59.01 -5.51 46.73 C-6.45 43.04 -7.11 40.71 -10.12 38.31 C-11.07 37.88 -12.02 37.45 -13 37 C-14.39 35.87 -15.76 34.72 -17.12 33.56 C-33.91 20.51 -57.15 24.34 -71 40 Z M-69 33 C-69.33 34.32 -69.66 35.64 -70 37 C-69.01 35.68 -68.02 34.36 -67 33 C-67.66 33 -68.32 33 -69 33 Z " fill="#ECECF7" transform="translate(637,732)"/>
<path d="M0 0 C0.8 0.01 1.61 0.01 2.44 0.02 C3.71 0.01 3.71 0.01 5.01 0.01 C7.81 0.01 10.62 0.02 13.43 0.03 C15.38 0.03 17.32 0.03 19.27 0.03 C23.35 0.03 27.43 0.04 31.51 0.05 C36.75 0.07 41.99 0.07 47.23 0.07 C51.25 0.07 55.27 0.08 59.28 0.09 C61.22 0.09 63.15 0.09 65.08 0.09 C67.78 0.1 70.48 0.1 73.17 0.11 C73.98 0.11 74.79 0.11 75.62 0.11 C81.13 0.15 81.13 0.15 82.24 1.26 C82.33 3.64 82.36 5.98 82.34 8.36 C82.34 9.07 82.34 9.78 82.33 10.51 C82.33 12.78 82.32 15.05 82.3 17.32 C82.3 18.86 82.29 20.4 82.29 21.93 C82.28 25.71 82.26 29.48 82.24 33.26 C79.5 34.17 77.73 34.41 74.9 34.47 C73.65 34.51 73.65 34.51 72.37 34.56 C70.62 34.61 68.87 34.65 67.11 34.69 C66.28 34.72 65.44 34.75 64.58 34.78 C63.44 34.81 63.44 34.81 62.28 34.84 C59.74 35.36 58.95 36.36 57.24 38.26 C54.22 39.76 51.15 41.11 48.05 42.47 C44.65 44.63 43.89 46.66 42.24 50.26 C43.32 50.25 44.39 50.24 45.5 50.23 C49.48 50.19 53.47 50.17 57.46 50.15 C59.18 50.14 60.91 50.13 62.63 50.11 C65.11 50.08 67.59 50.07 70.07 50.06 C70.85 50.05 71.62 50.04 72.41 50.03 C76.23 50.03 77.98 50.09 81.24 52.26 C81.49 55.33 81.49 55.33 81.32 59.24 C81.28 60.26 81.28 60.26 81.24 61.31 C81.15 63.5 81.04 65.69 80.93 67.88 C80.87 69.37 80.8 70.85 80.74 72.34 C80.59 75.98 80.42 79.62 80.24 83.26 C74.3 83.59 68.36 83.92 62.24 84.26 C62.24 84.59 62.24 84.92 62.24 85.26 C61.48 85.38 60.71 85.51 59.93 85.63 C57.04 86.14 57.04 86.14 54.24 88.26 C51.49 89.5 48.71 90.67 45.93 91.85 C43 93.39 41.28 94.65 39.24 97.26 C38.53 99.58 37.86 101.91 37.24 104.26 C38.06 104.26 38.06 104.26 38.9 104.25 C44.6 104.23 50.29 104.22 55.99 104.21 C58.11 104.2 60.24 104.19 62.37 104.18 C65.42 104.17 68.47 104.17 71.52 104.16 C72.95 104.15 72.95 104.15 74.42 104.15 C75.3 104.15 76.18 104.15 77.09 104.15 C77.87 104.14 78.65 104.14 79.45 104.14 C81.24 104.26 81.24 104.26 82.24 105.26 C82.33 107.64 82.36 109.98 82.34 112.36 C82.34 113.07 82.34 113.78 82.33 114.51 C82.33 116.78 82.32 119.05 82.3 121.32 C82.3 122.86 82.29 124.4 82.29 125.93 C82.28 129.71 82.26 133.48 82.24 137.26 C8.48 138.91 8.48 138.91 -6.76 137.26 C-8.46 135.56 -7.89 133.39 -7.89 131.07 C-7.9 129.94 -7.9 128.81 -7.91 127.65 C-7.91 126.41 -7.9 125.16 -7.9 123.88 C-7.91 122.57 -7.91 121.27 -7.91 119.93 C-7.92 116.34 -7.93 112.75 -7.93 109.17 C-7.93 106.18 -7.93 103.19 -7.93 100.2 C-7.94 93.15 -7.94 86.09 -7.94 79.04 C-7.94 71.76 -7.95 64.48 -7.97 57.19 C-7.98 50.95 -7.99 44.7 -7.99 38.46 C-7.99 34.72 -7.99 30.99 -8 27.26 C-8.01 23.1 -8.01 18.93 -8 14.77 C-8.01 13.53 -8.01 12.28 -8.02 11 C-8.01 9.87 -8.01 8.74 -8.01 7.58 C-8.01 6.6 -8.01 5.61 -8.01 4.6 C-7.47 -0.42 -4.29 0.02 0 0 Z M57.24 32.26 C57.24 32.59 57.24 32.92 57.24 33.26 C64.5 33.26 71.76 33.26 79.24 33.26 C79.24 32.93 79.24 32.6 79.24 32.26 C71.98 32.26 64.72 32.26 57.24 32.26 Z " fill="#ECECF7" transform="translate(319.7588653564453,720.7400512695313)"/>
<path d="M0 0 C1.73 0.01 1.73 0.01 3.5 0.01 C4.76 0.01 6.01 0.02 7.3 0.02 C9.27 0.04 9.27 0.04 11.28 0.06 C13.26 0.06 13.26 0.06 15.28 0.06 C25.08 0.1 25.08 0.1 26.22 1.24 C26.31 3 26.34 4.76 26.34 6.53 C26.34 8.24 26.34 8.24 26.34 10 C26.34 11.9 26.34 11.9 26.33 13.84 C26.33 15.18 26.33 16.52 26.33 17.86 C26.33 21.51 26.33 25.16 26.32 28.81 C26.31 32.62 26.31 36.42 26.31 40.23 C26.31 47.45 26.3 54.67 26.29 61.89 C26.28 70.1 26.27 78.32 26.27 86.53 C26.26 103.44 26.24 120.34 26.22 137.24 C22.13 137.27 18.03 137.29 13.94 137.3 C12.55 137.3 11.15 137.31 9.76 137.32 C7.76 137.33 5.76 137.34 3.76 137.34 C2.55 137.35 1.35 137.35 0.11 137.36 C-2.78 137.24 -2.78 137.24 -4.78 136.24 C-4.78 136.9 -4.78 137.56 -4.78 138.24 C-6.36 138.27 -7.95 138.29 -9.53 138.31 C-10.41 138.32 -11.29 138.33 -12.2 138.34 C-14.78 138.24 -14.78 138.24 -16.8 137.68 C-19.37 137.11 -21.21 137.68 -23.78 138.24 C-38.66 139.22 -50.39 136.59 -62.78 128.24 C-63.39 127.85 -63.99 127.46 -64.62 127.06 C-74.22 120.1 -79.03 106.49 -81.39 95.36 C-83.65 77.2 -80.45 60.25 -69.09 45.49 C-60.66 36.34 -47.7 30.87 -35.4 30 C-26.08 29.82 -18.16 30.75 -10.16 35.94 C-9.38 36.37 -8.59 36.8 -7.78 37.24 C-6.79 36.91 -5.8 36.58 -4.78 36.24 C-4.79 35.22 -4.8 34.2 -4.81 33.15 C-4.85 29.38 -4.87 25.6 -4.89 21.83 C-4.9 20.19 -4.92 18.56 -4.93 16.92 C-4.96 14.57 -4.97 12.22 -4.98 9.88 C-4.99 8.78 -4.99 8.78 -5.01 7.65 C-5.01 5.85 -4.9 4.04 -4.78 2.24 C-2.78 0.24 -2.78 0.24 0 0 Z M-4.78 39.24 C-3.78 41.24 -3.78 41.24 -3.78 41.24 Z M-31.78 60.24 C-31.78 60.57 -31.78 60.9 -31.78 61.24 C-28.81 61.24 -25.84 61.24 -22.78 61.24 C-22.78 60.91 -22.78 60.58 -22.78 60.24 C-25.75 60.24 -28.72 60.24 -31.78 60.24 Z M-42.78 72.24 C-42.78 72.9 -42.78 73.56 -42.78 74.24 C-43.44 74.24 -44.1 74.24 -44.78 74.24 C-45.77 75.73 -45.77 75.73 -46.78 77.24 C-47.44 76.58 -48.1 75.92 -48.78 75.24 C-51.83 80.58 -51.63 86.09 -50.06 91.94 C-47.35 99.29 -43.39 104.18 -36.22 107.51 C-29.84 109.42 -22.47 109.4 -16.34 106.68 C-11.52 103.8 -8.25 99.71 -5.41 94.93 C-4.11 89.38 -3.8 84.24 -6.34 79.06 C-14.01 70 -14.01 70 -24.94 65.93 C-32.13 65.54 -36.96 68.36 -42.78 72.24 Z M-47.78 72.24 C-46.78 75.24 -46.78 75.24 -46.78 75.24 Z M-5.78 77.24 C-4.78 80.24 -4.78 80.24 -4.78 80.24 Z " fill="#ECECF7" transform="translate(759.781494140625,720.757080078125)"/>
<path d="M0 0 C12.42 9.39 20.29 21.62 23 37 C24.17 54.43 23.36 71.17 11.45 84.96 C0.81 96.24 -11.11 102.24 -26.74 103.24 C-44.27 103.71 -59.48 99.94 -72.8 87.89 C-84.14 77.02 -88.7 62.78 -89.09 47.33 C-88.43 32.45 -83.19 16.36 -72 6 C-51.41 -10.78 -22.93 -14.73 0 0 Z M-53 39 C-53 38.01 -53 37.02 -53 36 C-53.66 36 -54.32 36 -55 36 C-58.1 42.58 -58.12 50.38 -56.42 57.41 C-53.59 63.9 -47.59 69.51 -41.11 72.2 C-34.54 73.89 -26.91 74.3 -20.62 71.44 C-14.3 67.65 -9.85 63.23 -8 56 C-6.8 46.61 -6.8 46.61 -9.29 37.8 C-11.1 36.22 -12.87 35.13 -15 34 C-16.42 33.06 -17.83 32.13 -19.25 31.19 C-31.52 23.61 -44.17 29.01 -53 39 Z M-11 34 C-10 36 -10 36 -10 36 Z M-10 37 C-9 39 -9 39 -9 39 Z " fill="#ECECF7" transform="translate(1063,758)"/>
<path d="M0 0 C1.28 -0.01 1.28 -0.01 2.6 -0.02 C3.54 -0.01 4.48 -0.01 5.45 -0 C6.44 -0.01 7.43 -0.01 8.45 -0.02 C11.74 -0.02 15.02 -0.02 18.31 -0.01 C20.59 -0.01 22.86 -0.01 25.14 -0.02 C29.92 -0.02 34.7 -0.02 39.47 -0.01 C45.6 0 51.74 -0 57.87 -0.01 C62.57 -0.02 67.27 -0.02 71.98 -0.01 C74.24 -0.01 76.5 -0.01 78.76 -0.02 C81.92 -0.02 85.08 -0.02 88.24 -0 C89.18 -0.01 90.11 -0.01 91.08 -0.02 C91.94 -0.01 92.8 -0.01 93.69 0 C94.43 0 95.18 0 95.95 0 C97.91 0.25 97.91 0.25 100.91 2.25 C101.24 4.44 101.24 4.44 101.16 7.25 C101.13 8.31 101.11 9.37 101.08 10.46 C100.75 17.73 100.35 24.99 99.91 32.25 C91.99 32.58 84.07 32.91 75.91 33.25 C77.23 33.91 78.55 34.57 79.91 35.25 C72.41 42.75 72.41 42.75 64.91 50.25 C64.69 53.05 64.6 55.76 64.59 58.56 C64.58 59.42 64.57 60.28 64.56 61.16 C64.53 64.01 64.51 66.85 64.49 69.7 C64.47 71.67 64.46 73.64 64.43 75.61 C64.38 80.8 64.34 85.99 64.31 91.18 C64.27 96.48 64.22 101.78 64.17 107.07 C64.07 117.46 63.98 127.86 63.91 138.25 C59.39 138.28 54.87 138.3 50.35 138.31 C48.81 138.31 47.27 138.32 45.73 138.33 C43.52 138.34 41.31 138.35 39.1 138.35 C38.41 138.36 37.72 138.36 37.01 138.37 C32.14 138.37 32.14 138.37 29.91 137.25 C29.91 136.16 29.92 135.07 29.93 133.94 C29.99 123.61 30.01 113.29 29.98 102.96 C29.97 97.65 29.97 92.34 30.01 87.03 C30.05 81.9 30.05 76.78 30.01 71.65 C30.01 69.7 30.02 67.74 30.04 65.79 C30.47 53.02 30.47 53.02 24.52 42.17 C23.02 40.82 21.48 39.51 19.91 38.25 C19.13 37.43 19.13 37.43 18.33 36.59 C14.81 32.97 11.47 32.65 6.67 32.51 C5.82 32.51 4.97 32.51 4.09 32.5 C2.38 32.47 0.67 32.43 -1.05 32.39 C-1.8 32.39 -2.55 32.38 -3.33 32.38 C-5.09 32.25 -5.09 32.25 -6.09 31.25 C-6.31 27.14 -6.28 23.02 -6.28 18.9 C-6.28 16.83 -6.3 14.76 -6.32 12.69 C-6.32 11.39 -6.32 10.09 -6.32 8.76 C-6.33 7.56 -6.33 6.36 -6.34 5.13 C-5.95 0.55 -4.18 0 0 0 Z M-4.09 1.25 C-4.09 1.58 -4.09 1.91 -4.09 2.25 C-1.78 2.25 0.53 2.25 2.91 2.25 C2.91 1.92 2.91 1.59 2.91 1.25 C0.6 1.25 -1.71 1.25 -4.09 1.25 Z " fill="#EDEDF8" transform="translate(194.09263610839844,719.7460327148438)"/>
<path d="M0 0 C1.92 0.01 1.92 0.01 3.88 0.01 C4.91 0.01 4.91 0.01 5.95 0.01 C7.4 0.02 8.84 0.02 10.28 0.04 C12.5 0.06 14.72 0.06 16.93 0.06 C27.8 0.1 27.8 0.1 28.94 1.24 C29.07 4.41 29.13 7.55 29.15 10.72 C29.16 11.71 29.17 12.71 29.18 13.73 C29.21 17.04 29.23 20.35 29.26 23.65 C29.28 25.94 29.3 28.22 29.32 30.51 C29.38 36.54 29.43 42.57 29.48 48.59 C29.53 54.74 29.58 60.89 29.64 67.03 C29.74 79.1 29.85 91.17 29.94 103.24 C30.63 103.24 31.32 103.24 32.02 103.24 C39.15 103.21 46.27 103.2 53.39 103.19 C56.05 103.18 58.71 103.18 61.37 103.17 C65.18 103.16 69 103.15 72.81 103.15 C74.01 103.14 75.21 103.13 76.44 103.13 C78.1 103.13 78.1 103.13 79.78 103.13 C80.76 103.13 81.73 103.12 82.73 103.12 C84.94 103.24 84.94 103.24 85.94 104.24 C86.03 106.62 86.06 108.97 86.04 111.34 C86.04 112.05 86.04 112.76 86.04 113.49 C86.03 115.76 86.02 118.03 86.01 120.31 C86 121.84 86 123.38 85.99 124.92 C85.98 128.69 85.96 132.47 85.94 136.24 C28.31 137.54 28.31 137.54 8.94 136.93 C7.71 136.9 6.47 136.86 5.2 136.83 C-2.8 136.5 -2.8 136.5 -5.06 134.24 C-5.31 131.94 -5.31 131.94 -5.31 129 C-5.32 127.89 -5.32 126.78 -5.33 125.64 C-5.32 124.42 -5.32 123.19 -5.32 121.93 C-5.32 120.65 -5.32 119.36 -5.33 118.04 C-5.34 114.51 -5.33 110.98 -5.33 107.45 C-5.32 103.76 -5.33 100.08 -5.33 96.39 C-5.33 90.19 -5.33 84 -5.32 77.81 C-5.31 70.64 -5.31 63.47 -5.32 56.3 C-5.33 50.16 -5.33 44.01 -5.33 37.86 C-5.32 34.19 -5.32 30.51 -5.33 26.84 C-5.34 22.74 -5.33 18.65 -5.32 14.56 C-5.32 12.72 -5.32 12.72 -5.33 10.85 C-5.32 9.74 -5.32 8.63 -5.31 7.48 C-5.31 6.51 -5.31 5.54 -5.31 4.54 C-4.9 0.79 -3.65 0.29 0 0 Z " fill="#ECECF7" transform="translate(424.056884765625,721.757080078125)"/>
<path d="M0 0 C1.72 0.01 1.72 0.01 3.48 0.01 C4.73 0.01 5.98 0.02 7.27 0.02 C9.23 0.04 9.23 0.04 11.23 0.06 C12.54 0.06 13.85 0.06 15.2 0.06 C24.95 0.1 24.95 0.1 27.23 1.24 C28.17 21.2 28.35 41.14 28.36 61.12 C28.36 62.33 28.36 63.54 28.37 64.79 C28.39 78.31 28.28 91.76 27.23 105.24 C23 105.27 18.76 105.29 14.53 105.3 C13.09 105.3 11.64 105.31 10.2 105.32 C8.13 105.33 6.06 105.34 3.99 105.34 C2.75 105.35 1.5 105.35 0.22 105.36 C-2.77 105.24 -2.77 105.24 -4.77 104.24 C-4.81 90.98 -4.85 77.71 -4.87 64.45 C-4.88 58.29 -4.89 52.13 -4.92 45.97 C-4.94 40.03 -4.95 34.09 -4.96 28.16 C-4.96 25.88 -4.97 23.61 -4.98 21.34 C-4.99 18.17 -4.99 15 -4.99 11.83 C-5 10.89 -5.01 9.94 -5.01 8.96 C-5.01 8.1 -5.01 7.24 -5.01 6.36 C-5.01 5.61 -5.01 4.86 -5.01 4.08 C-4.57 0.77 -3.14 0.28 0 0 Z M26.23 32.24 C26.23 49.07 26.23 65.9 26.23 83.24 C26.56 83.24 26.89 83.24 27.23 83.24 C27.23 66.41 27.23 49.58 27.23 32.24 C26.9 32.24 26.57 32.24 26.23 32.24 Z M26.23 84.24 C27.23 88.24 27.23 88.24 27.23 88.24 Z " fill="#E8E8F3" transform="translate(810.765625,752.757080078125)"/>
<path d="M0 0 C3.89 2.68 5.72 5.97 7.09 10.44 C7.95 17 7.95 21.91 4.09 27.44 C0.91 31.01 -1.11 32.28 -5.95 32.71 C-13.69 32.93 -19.96 32.82 -25.91 27.44 C-29.06 23.59 -30.24 19.9 -29.97 14.94 C-28.9 8.99 -26.63 4.34 -21.6 0.83 C-14 -3.29 -7.85 -3.85 0 0 Z " fill="#EDEDF8" transform="translate(832.91015625,714.55859375)"/>
<path d="M0 0 C0.66 0.33 1.32 0.66 2 1 C2.48 8.48 1.68 14.75 -3.39 20.61 C-7.4 24.2 -11.53 25.89 -16.88 26.12 C-17.93 26.06 -17.93 26.06 -19 26 C-19 24.35 -19 22.7 -19 21 C-23.25 18.87 -28.67 19.57 -33.06 21 C-33.7 21.33 -34.34 21.66 -35 22 C-36.5 20.69 -36.5 20.69 -38 19 C-38 18.01 -38 17.02 -38 16 C-39.12 15.89 -39.12 15.89 -40.26 15.79 C-43.77 14.78 -44.71 13.37 -46.81 10.44 C-47.42 9.61 -48.02 8.78 -48.64 7.93 C-49.09 7.3 -49.54 6.66 -50 6 C-46.62 4.88 -44.38 5.18 -40.94 5.94 C-29.73 7.95 -15.51 9.19 -5 4 C-1.98 2.01 -1.98 2.01 0 0 Z M-33 9 C-33 9.33 -33 9.66 -33 10 C-31.35 10 -29.7 10 -28 10 C-28 9.67 -28 9.34 -28 9 C-29.65 9 -31.3 9 -33 9 Z M-20 9 C-16 10 -16 10 -16 10 Z " fill="#000002" transform="translate(928,849)"/>
<path d="M0 0 C1.6 0.01 1.6 0.01 3.23 0.01 C5.01 0.01 5.01 0.01 6.83 0.02 C8.11 0.03 9.39 0.04 10.71 0.06 C12.65 0.07 12.65 0.07 14.64 0.07 C25.93 0.16 37.19 0.59 48.46 1.24 C48.46 1.57 48.46 1.9 48.46 2.24 C47.9 2.26 47.34 2.27 46.76 2.29 C44.22 2.36 41.69 2.46 39.15 2.56 C38.27 2.58 37.39 2.6 36.48 2.62 C35.21 2.68 35.21 2.68 33.91 2.73 C33.13 2.76 32.35 2.78 31.54 2.81 C28.97 3.34 28.19 4.32 26.46 6.24 C23.44 7.74 20.37 9.1 17.27 10.45 C13.89 12.6 12.93 14.57 11.46 18.24 C8.98 18.27 6.5 18.29 4.02 18.31 C3.32 18.31 2.61 18.32 1.88 18.33 C0.07 18.34 -1.73 18.3 -3.54 18.24 C-5.52 16.26 -4.73 12.51 -4.73 9.81 C-4.74 9.11 -4.75 8.42 -4.76 7.7 C-4.77 5.88 -4.66 4.06 -4.54 2.24 C-2.54 0.24 -2.54 0.24 0 0 Z " fill="#000002" transform="translate(350.5400390625,752.757080078125)"/>
<path d="M0 0 C1.03 0 2.06 0.01 3.11 0.01 C4.25 0.01 5.38 0.02 6.54 0.02 C8.32 0.04 8.32 0.04 10.14 0.06 C11.3 0.06 12.47 0.06 13.67 0.06 C19.7 0.09 25.54 0.32 31.51 1.24 C31.51 1.57 31.51 1.9 31.51 2.24 C30.75 2.37 29.99 2.49 29.2 2.62 C26.31 3.12 26.31 3.12 23.51 5.24 C20.76 6.48 17.99 7.66 15.2 8.83 C10.75 11.17 8.86 13.21 7.26 17.99 C6.89 19.6 6.89 19.6 6.51 21.24 C4.87 21.27 3.22 21.29 1.58 21.31 C0.66 21.32 -0.26 21.33 -1.2 21.34 C-3.49 21.24 -3.49 21.24 -4.49 20.24 C-4.61 17.25 -4.67 14.3 -4.67 11.31 C-4.69 10.47 -4.7 9.63 -4.71 8.77 C-4.71 7.97 -4.72 7.17 -4.72 6.34 C-4.72 5.6 -4.73 4.87 -4.73 4.11 C-4.32 0.96 -3.02 0.3 0 0 Z " fill="#000002" transform="translate(350.48681640625,803.757080078125)"/>
<path d="M0 0 C5.17 4.67 9.79 10.21 10.19 17.38 C10.09 18.67 10.09 18.67 10 20 C9.5 19.32 9.01 18.64 8.5 17.94 C3.74 12.35 -1.44 6.8 -8.95 5.72 C-15.49 5.26 -20.67 7.25 -26 11 C-28.07 13.24 -29.44 15.35 -31 18 C-31.87 14.85 -32.04 13.13 -31 10 C-30.77 9.2 -30.55 8.39 -30.31 7.56 C-27.51 2.09 -22.66 -0.62 -17 -2.5 C-10.99 -4.01 -5.29 -3.13 0 0 Z " fill="#000002" transform="translate(919,784)"/>
<path d="M0 0 C1.27 2.14 1.27 2.14 2 4 C3.02 4.71 3.02 4.71 4.06 5.44 C6.55 7.44 6.67 8.9 7 12 C6.49 11.61 5.98 11.23 5.46 10.83 C3.32 9.21 1.16 7.6 -1 6 C-1.97 5.28 -2.94 4.56 -3.94 3.81 C-12.95 -1.52 -22.78 -2.65 -33.03 -0.31 C-41.62 2.57 -48.91 7.32 -55 14 C-55 12.35 -55 10.7 -55 9 C-54.34 9 -53.68 9 -53 9 C-52.01 7.02 -51.02 5.04 -50 3 C-49.34 3 -48.68 3 -48 3 C-47.67 2.01 -47.34 1.02 -47 0 C-31.24 -9.91 -15.63 -10.53 0 0 Z " fill="#000002" transform="translate(620,760)"/>
<path d="M0 0 C96.03 0 192.06 0 291 0 C291 0.33 291 0.66 291 1 C194.97 1 98.94 1 0 1 C0 0.67 0 0.34 0 0 Z " fill="#EDEDF8" transform="translate(469,428)"/>
<path d="M0 0 C0.99 0.66 1.98 1.32 3 2 C3.62 2.27 4.24 2.54 4.88 2.81 C10.3 5.85 13.37 10.55 16 16 C16.25 18.94 16.25 18.94 16 21 C15.32 20.3 14.64 19.6 13.94 18.88 C5.68 10.58 5.68 10.58 -5.31 7.62 C-9.6 7.7 -12.58 8.91 -16.27 11.03 C-18 12 -18 12 -21 13 C-21 13.66 -21 14.32 -21 15 C-21.66 15 -22.32 15 -23 15 C-23.99 17.48 -23.99 17.48 -25 20 C-26.62 15.96 -25.52 12.94 -24 9 C-17.79 1.14 -9.77 -1.36 0 0 Z M-10 1 C-10 1.33 -10 1.66 -10 2 C-7.03 2 -4.06 2 -1 2 C-1 1.67 -1 1.34 -1 1 C-3.97 1 -6.94 1 -10 1 Z " fill="#000002" transform="translate(738,780)"/>
<path d="M0 0 C0 0.66 0 1.32 0 2 C0.78 2.78 1.57 3.57 2.38 4.38 C4.62 6.62 6.01 8.03 7 11 C6.67 11.99 6.34 12.98 6 14 C5.5 13.53 5.01 13.06 4.5 12.57 C-2.22 6.42 -7.88 3.31 -17.16 3.59 C-25.18 4.76 -31.24 9.61 -37 15 C-37.37 9.48 -37.37 9.48 -35.75 7.38 C-35.17 6.92 -34.6 6.47 -34 6 C-33.34 5.34 -32.68 4.68 -32 4 C-31.34 3.34 -30.68 2.68 -30 2 C-29.54 1.5 -29.08 1 -28.6 0.48 C-20.21 -7.28 -9.11 -4.26 0 0 Z " fill="#000002" transform="translate(1046,783)"/>
<path d="M0 0 C0.86 -0.02 1.73 -0.03 2.62 -0.05 C5.56 0.37 6.92 1.37 9.12 3.31 C4.12 8.31 -0.88 13.31 -5.88 18.31 C-6.98 13.07 -7.44 7.65 -6.88 2.31 C-4.37 -0.19 -3.45 0.02 0 0 Z " fill="#000002" transform="translate(264.875,751.6875)"/>
<path d="M0 0 C2.48 -0.03 4.96 -0.05 7.44 -0.06 C8.14 -0.07 8.85 -0.08 9.58 -0.09 C11.39 -0.1 13.19 -0.05 15 0 C16 1 16 1 16.1 4.38 C16.09 5.77 16.08 7.17 16.06 8.56 C16.06 9.27 16.05 9.98 16.05 10.72 C16.04 12.48 16.02 14.24 16 16 C15.27 15.26 14.54 14.52 13.79 13.76 C10.64 10.65 7.34 7.76 3.99 4.87 C2 3 2 3 0 0 Z " fill="#000002" transform="translate(208,752)"/>
<path d="M0 0 C0.99 0 1.98 0 3 0 C3 2.64 3 5.28 3 8 C-0.3 8 -3.6 8 -7 8 C-7.33 7.01 -7.66 6.02 -8 5 C-6.21 3.99 -4.42 2.98 -2.63 1.97 C-1.02 1.1 -1.02 1.1 0 0 Z " fill="#000002" transform="translate(752,851)"/>
<path d="M0 0 C0.33 0 0.66 0 1 0 C1 6.93 1 13.86 1 21 C0.67 21 0.34 21 0 21 C0 14.07 0 7.14 0 0 Z " fill="#000002" transform="translate(401,783)"/>
<path d="M0 0 C0.33 0 0.66 0 1 0 C1 4.29 1 8.58 1 13 C0.67 13 0.34 13 0 13 C0 8.71 0 4.42 0 0 Z " fill="#000002" transform="translate(295,739)"/>
<path d="M0 0 C3.96 0 7.92 0 12 0 C12 0.33 12 0.66 12 1 C8.04 1 4.08 1 0 1 C0 0.67 0 0.34 0 0 Z " fill="#000002" transform="translate(452,860)"/>
<path d="M0 0 C3.96 0 7.92 0 12 0 C12 0.33 12 0.66 12 1 C8.04 1 4.08 1 0 1 C0 0.67 0 0.34 0 0 Z " fill="#000002" transform="translate(344,860)"/>
<path d="M0 0 C2.64 0 5.28 0 8 0 C8 0.33 8 0.66 8 1 C5.36 1 2.72 1 0 1 C0 0.67 0 0.34 0 0 Z " fill="#EDEDF8" transform="translate(891,371)"/>
<path d="M0 0 C2.64 0 5.28 0 8 0 C8 0.33 8 0.66 8 1 C5.36 1 2.72 1 0 1 C0 0.67 0 0.34 0 0 Z " fill="#EDEDF8" transform="translate(333,371)"/>
<path d="M0 0 C1.98 0 3.96 0 6 0 C6 0.33 6 0.66 6 1 C4.02 1 2.04 1 0 1 C0 0.67 0 0.34 0 0 Z " fill="#000002" transform="translate(597,860)"/>
<path d="M0 0 C1.98 0 3.96 0 6 0 C6 0.33 6 0.66 6 1 C4.02 1 2.04 1 0 1 C0 0.67 0 0.34 0 0 Z " fill="#000002" transform="translate(820,748)"/>
<path d="M0 0 C0.33 0 0.66 0 1 0 C1 1.98 1 3.96 1 6 C0.67 6 0.34 6 0 6 C0 4.02 0 2.04 0 0 Z " fill="#EDEDF8" transform="translate(305,400)"/>
<path d="M0 0 C3 1 3 1 3 1 Z " fill="#000002" transform="translate(900,906)"/>
<path d="M0 0 C3 1 3 1 3 1 Z " fill="#000002" transform="translate(590,860)"/>
<path d="" fill="#EDEDF8" transform="translate(0,0)"/>
<path d="M0 0 C2 1 2 1 2 1 Z " fill="#000002" transform="translate(914,906)"/>
<path d="M0 0 C2 1 2 1 2 1 Z " fill="#000002" transform="translate(1021,861)"/>
<path d="M0 0 C2 1 2 1 2 1 Z " fill="#000002" transform="translate(720,859)"/>
<path d="" fill="#000002" transform="translate(0,0)"/>
<path d="" fill="#000002" transform="translate(0,0)"/>
<path d="" fill="#000002" transform="translate(0,0)"/>
<path d="" fill="#000002" transform="translate(0,0)"/>
<path d="M0 0 C2 1 2 1 2 1 Z " fill="#EDEDF8" transform="translate(715,649)"/>
<path d="" fill="#000002" transform="translate(0,0)"/>
<path d="" fill="#000002" transform="translate(0,0)"/>
<path d="" fill="#000002" transform="translate(0,0)"/>
<path d="" fill="#000002" transform="translate(0,0)"/>
<path d="" fill="#000002" transform="translate(0,0)"/>
<path d="" fill="#000002" transform="translate(0,0)"/>
<path d="" fill="#000002" transform="translate(0,0)"/>
<path d="" fill="#000002" transform="translate(0,0)"/>
<path d="" fill="#000002" transform="translate(0,0)"/>
<path d="" fill="#000002" transform="translate(0,0)"/>
<path d="" fill="#000002" transform="translate(0,0)"/>
<path d="" fill="#EDEDF8" transform="translate(0,0)"/>
</svg>
